<svg width="48" height="48" viewBox="0 0 48 48" fill="none" xmlns="http://www.w3.org/2000/svg">
<path d="M9.3833 29.4784V3L44.9922 13.5001V39.9785L9.3833 29.4784Z" fill="url(#paint0_linear_448_15026)"/>
<g clip-path="url(#clip0_448_15026)">
<path d="M14.9892 16.2954V13.3606M17.509 14.0358V15.2978C17.5091 15.4209 17.4765 15.5329 17.4149 15.6216C17.3532 15.7104 17.2648 15.7723 17.1593 15.8008L15.2695 16.2988C15.1829 16.3222 15.0867 16.3207 14.9892 16.2946C14.8916 16.2684 14.7954 16.2184 14.7088 16.1486L12.819 14.6378C12.7135 14.5528 12.6251 14.4434 12.5634 14.3217C12.5018 14.1999 12.4692 14.0705 12.4694 13.9474V12.6855M15.9876 10.1097C16.0661 10.0853 16.1545 10.0852 16.2443 10.1092C16.3342 10.1333 16.4226 10.1808 16.501 10.2473L17.8239 11.3713C17.9176 11.4513 17.9956 11.5518 18.0498 11.6625C18.104 11.7733 18.1326 11.8904 18.1326 12.0018C18.1326 12.1133 18.104 12.215 18.0498 12.2968C17.9956 12.3785 17.9176 12.4372 17.8239 12.467L13.9875 13.676C13.9089 13.7013 13.8198 13.7019 13.7293 13.6776C13.6387 13.6534 13.5497 13.6051 13.471 13.5375L12.1544 12.4152C12.0607 12.3352 11.9827 12.2347 11.9285 12.124C11.8743 12.0132 11.8457 11.8961 11.8457 11.7847C11.8457 11.6732 11.8743 11.5715 11.9285 11.4897C11.9827 11.408 12.0607 11.3493 12.1544 11.3195L15.9876 10.1097ZM17.8239 13.9343C17.9176 13.9046 17.9956 13.8459 18.0498 13.7642C18.104 13.6824 18.1326 13.5807 18.1326 13.4692C18.1326 13.3578 18.104 13.2407 18.0498 13.1299C17.9956 13.0192 17.9176 12.9186 17.8239 12.8387L13.9907 9.57136C13.9125 9.50409 13.824 9.456 13.734 9.43187C13.6439 9.40774 13.5554 9.4084 13.4773 9.43379L12.1544 9.85215C12.0607 9.88189 11.9827 9.94063 11.9285 10.0223C11.8743 10.1041 11.8457 10.2058 11.8457 10.3173C11.8457 10.4287 11.8743 10.5458 11.9285 10.6566C11.9827 10.7673 12.0607 10.8678 12.1544 10.9478L15.9908 14.2127C16.0689 14.2801 16.1574 14.3283 16.2475 14.3524C16.3376 14.3766 16.4261 14.3758 16.5042 14.3503L17.8239 13.9343Z" stroke="white" stroke-width="0.447205" stroke-linecap="round" stroke-linejoin="round"/>
<path d="M14.9893 10.4666L12.627 11.3011L14.9893 13.4014L17.3516 12.567L14.9893 10.4666Z" fill="white"/>
</g>
<path d="M23.3229 11.9954V14.2677L20.8902 13.6158V11.3436L21.3501 11.4668V13.3581L21.8893 13.5026V11.6113L22.3238 11.7277V13.619L22.8662 13.7644V11.873L23.3229 11.9954ZM25.4419 14.8354L24.982 14.7122V13.7994C24.982 13.4885 25.0042 13.2033 25.0486 12.9438L24.3572 14.5448L23.7863 14.3918V12.1196L24.2462 12.2428V13.1655C24.2462 13.3494 24.2398 13.5009 24.2271 13.6201C24.2166 13.7376 24.2007 13.8669 24.1796 14.0079L24.8837 12.4136L25.4419 12.5632V14.8354ZM28.271 14.4442C28.271 14.7704 28.1801 14.9934 27.9982 15.1132C27.8164 15.2309 27.5637 15.2518 27.2402 15.1761V15.4421L26.7866 15.3205V15.0513C26.4589 14.9481 26.2051 14.7904 26.0254 14.578C25.8457 14.3635 25.7558 14.0975 25.7558 13.7801C25.7558 13.454 25.8467 13.2321 26.0286 13.1144C26.2104 12.9946 26.4631 12.9725 26.7866 13.0483V12.802L27.2402 12.9235V13.1731C27.5679 13.2762 27.8216 13.4351 28.0014 13.6496C28.1811 13.8619 28.271 14.1268 28.271 14.4442ZM27.2211 14.8623C27.422 14.903 27.5679 14.8797 27.6588 14.7924C27.7498 14.7052 27.7952 14.5466 27.7952 14.3167C27.7952 14.0913 27.7487 13.9102 27.6557 13.7737C27.5626 13.6371 27.4178 13.537 27.2211 13.4734V14.8623ZM26.2316 13.9076C26.2316 14.1331 26.2781 14.3141 26.3711 14.4507C26.4642 14.5872 26.609 14.6874 26.8056 14.751V13.362C26.6048 13.3213 26.4589 13.3446 26.3679 13.4319C26.277 13.5192 26.2316 13.6778 26.2316 13.9076ZM29.9284 13.7653L29.8777 14.1294L29.3226 13.9806V15.8753L28.8564 15.7503V13.8557L28.2728 13.6993V13.3217L29.9284 13.7653Z" fill="white"/>
<path d="M21.4643 15.4974C21.8069 15.5892 22.0807 15.7435 22.2858 15.9605C22.493 16.1758 22.5966 16.498 22.5966 16.9271C22.5966 17.3474 22.4951 17.6168 22.2921 17.7353C22.0912 17.8523 21.8333 17.8685 21.5182 17.7841L20.8902 17.6158V15.3436L21.4643 15.4974ZM21.3565 15.8231V17.3861L21.5468 17.4371C21.7265 17.4853 21.865 17.4655 21.9623 17.3777C22.0616 17.2883 22.1113 17.0947 22.1113 16.797C22.1113 16.5913 22.086 16.4247 22.0352 16.2972C21.9866 16.1704 21.921 16.0762 21.8386 16.0147C21.7561 15.951 21.6557 15.9033 21.5373 15.8716L21.3565 15.8231ZM24.263 16.2473L24.2122 16.585L23.4193 16.3726V16.9636L24.1108 17.1489V17.497L23.4193 17.3117V17.9389L24.2693 18.1666V18.5212L22.9531 18.1686V15.8963L24.263 16.2473ZM25.095 16.4702V18.355L25.9641 18.5879L25.9133 18.9617L24.6288 18.6175V16.3453L25.095 16.4702ZM26.7087 16.9026V19.1749L26.2425 19.0499V16.7777L26.7087 16.9026ZM28.767 17.4541L28.1358 19.5573L27.5681 19.4051L26.9147 16.9578L27.4127 17.0912L27.8599 19.0827L28.2912 17.3267L28.767 17.4541ZM30.2843 17.8607L30.2335 18.1984L29.4406 17.986V18.577L30.1321 18.7623V19.1104L29.4406 18.9251V19.5523L30.2906 19.78V20.1346L28.9744 19.782V17.5097L30.2843 17.8607ZM31.3542 19.5298L31.1163 19.466V20.3559L30.6501 20.231V17.9587L31.3351 18.1423C31.6291 18.221 31.85 18.3371 31.998 18.4906C32.146 18.6419 32.2201 18.8314 32.2201 19.0591C32.2201 19.2079 32.1841 19.3209 32.1122 19.398C32.0424 19.4756 31.9335 19.5285 31.7855 19.5567L32.3533 20.6873L31.8236 20.5454L31.3542 19.5298ZM31.1163 19.1245L31.3605 19.19C31.4853 19.2234 31.5794 19.2202 31.6428 19.1802C31.7062 19.1381 31.738 19.0547 31.738 18.9299C31.738 18.8139 31.7041 18.7205 31.6365 18.6499C31.5709 18.5776 31.4673 18.5225 31.3256 18.4845L31.1163 18.4284V19.1245ZM34.1325 18.8918L33.4284 20.1184V20.9754L32.9622 20.8505V19.9967L32.2581 18.3896L32.7687 18.5264L33.2064 19.6747L33.6409 18.7601L34.1325 18.8918Z" fill="white"/>
<rect width="16.98" height="5.27636" rx="0.782609" transform="matrix(0.961262 0.275637 0 1 24.9058 26.4848)" fill="white" fill-opacity="0.5"/>
<path d="M2.99219 34.5003V8.02185L38.6011 18.5219V45.0004L2.99219 34.5003Z" fill="url(#paint1_linear_448_15026)"/>
<g clip-path="url(#clip1_448_15026)">
<path d="M8.59805 21.317V18.3823M11.1179 19.0574V20.3194C11.118 20.4425 11.0854 20.5545 11.0238 20.6433C10.9621 20.732 10.8737 20.794 10.7682 20.8225L8.87838 21.3204C8.79179 21.3438 8.69563 21.3424 8.59805 21.3162C8.50046 21.2901 8.40431 21.24 8.31772 21.1702L6.42787 19.6595C6.32237 19.5744 6.23398 19.4651 6.17232 19.3433C6.11066 19.2216 6.07812 19.0921 6.07824 18.969V17.7071M9.59652 15.1313C9.67497 15.1069 9.76335 15.1068 9.85323 15.1309C9.94311 15.1549 10.0315 15.2025 10.1099 15.2689L11.4328 16.3929C11.5265 16.4729 11.6045 16.5734 11.6587 16.6842C11.7129 16.7949 11.7415 16.912 11.7415 17.0235C11.7415 17.1349 11.7129 17.2367 11.6587 17.3184C11.6045 17.4001 11.5265 17.4588 11.4328 17.4886L7.59643 18.6976C7.51774 18.723 7.42873 18.7235 7.33815 18.6993C7.24756 18.675 7.15855 18.6267 7.07987 18.5592L5.76327 17.4368C5.66958 17.3569 5.59163 17.2564 5.5374 17.1456C5.48317 17.0348 5.45459 16.9177 5.45459 16.8063C5.45459 16.6948 5.48317 16.5931 5.5374 16.5114C5.59163 16.4296 5.66958 16.3709 5.76327 16.3412L9.59652 15.1313ZM11.4328 18.956C11.5265 18.9262 11.6045 18.8675 11.6587 18.7858C11.7129 18.7041 11.7415 18.6023 11.7415 18.4909C11.7415 18.3794 11.7129 18.2623 11.6587 18.1516C11.6045 18.0408 11.5265 17.9403 11.4328 17.8603L7.59958 14.593C7.52142 14.5257 7.43293 14.4776 7.34287 14.4535C7.25281 14.4294 7.16432 14.43 7.08616 14.4554L5.76327 14.8738C5.66958 14.9035 5.59163 14.9622 5.5374 15.044C5.48317 15.1257 5.45459 15.2275 5.45459 15.3389C5.45459 15.4503 5.48317 15.5674 5.5374 15.6782C5.59163 15.789 5.66958 15.8895 5.76327 15.9694L9.59967 19.2343C9.67778 19.3017 9.76629 19.3499 9.85638 19.374C9.94646 19.3982 10.035 19.3974 10.1131 19.3719L11.4328 18.956Z" stroke="white" stroke-width="0.447205" stroke-linecap="round" stroke-linejoin="round"/>
<path d="M8.59767 15.4883L6.23535 16.3227L8.59767 18.423L10.96 17.5886L8.59767 15.4883Z" fill="white"/>
</g>
<path d="M16.9318 17.017V19.2893L14.4991 18.6374V16.3652L14.959 16.4884V18.3798L15.4982 18.5242V16.6329L15.9327 16.7493V18.6407L16.4751 18.786V16.8946L16.9318 17.017ZM19.0508 19.8571L18.5909 19.7338V18.821C18.5909 18.5101 18.6131 18.2249 18.6575 17.9654L17.9661 19.5664L17.3952 19.4134V17.1412L17.8551 17.2644V18.1871C17.8551 18.371 17.8487 18.5225 17.836 18.6417C17.8255 18.7593 17.8096 18.8886 17.7885 19.0296L18.4926 17.4352L19.0508 17.5848V19.8571ZM21.8799 19.4658C21.8799 19.792 21.7889 20.015 21.6071 20.1348C21.4253 20.2525 21.1726 20.2734 20.8491 20.1977V20.4637L20.3955 20.3421V20.0729C20.0678 19.9697 19.814 19.812 19.6343 19.5997C19.4546 19.3851 19.3647 19.1192 19.3647 18.8018C19.3647 18.4756 19.4556 18.2537 19.6375 18.136C19.8193 18.0162 20.072 17.9942 20.3955 18.0699V17.8236L20.8491 17.9452V18.1947C21.1768 18.2978 21.4305 18.4567 21.6103 18.6712C21.79 18.8835 21.8799 19.1484 21.8799 19.4658ZM20.83 19.8839C21.0309 19.9246 21.1768 19.9013 21.2677 19.8141C21.3586 19.7268 21.4041 19.5682 21.4041 19.3384C21.4041 19.1129 21.3576 18.9319 21.2646 18.7953C21.1715 18.6587 21.0267 18.5586 20.83 18.495V19.8839ZM19.8405 18.9292C19.8405 19.1547 19.887 19.3357 19.98 19.4723C20.073 19.6089 20.2179 19.709 20.4145 19.7726V18.3836C20.2137 18.343 20.0678 18.3663 19.9768 18.4535C19.8859 18.5408 19.8405 18.6994 19.8405 18.9292ZM23.5373 18.787L23.4866 19.151L22.9315 19.0023V20.8969L22.4653 20.772V18.8773L21.8817 18.7209V18.3433L23.5373 18.787Z" fill="white"/>
<path d="M15.0732 20.519C15.4157 20.6108 15.6896 20.7652 15.8947 20.9821C16.1019 21.1974 16.2055 21.5196 16.2055 21.9487C16.2055 22.369 16.104 22.6384 15.901 22.7569C15.7001 22.8739 15.4422 22.8901 15.1271 22.8057L14.4991 22.6374V20.3652L15.0732 20.519ZM14.9654 20.8447V22.4077L15.1557 22.4587C15.3354 22.5069 15.4739 22.4871 15.5712 22.3993C15.6705 22.3099 15.7202 22.1164 15.7202 21.8187C15.7202 21.6129 15.6948 21.4463 15.6441 21.3189C15.5955 21.192 15.5299 21.0978 15.4475 21.0363C15.365 20.9726 15.2646 20.9249 15.1461 20.8932L14.9654 20.8447ZM17.8719 21.2689L17.8211 21.6067L17.0282 21.3942V21.9852L17.7196 22.1705V22.5186L17.0282 22.3333V22.9605L17.8782 23.1882V23.5429L16.562 23.1902V20.9179L17.8719 21.2689ZM18.7039 21.4918V23.3766L19.5729 23.6095L19.5222 23.9834L18.2376 23.6392V21.3669L18.7039 21.4918ZM20.3176 21.9242V24.1965L19.8514 24.0716V21.7993L20.3176 21.9242ZM22.3759 22.4758L21.7447 24.5789L21.177 24.4268L20.5236 21.9794L21.0216 22.1129L21.4688 24.1044L21.9001 22.3483L22.3759 22.4758ZM23.8932 22.8823L23.8424 23.2201L23.0495 23.0076V23.5986L23.7409 23.7839V24.132L23.0495 23.9467V24.5739L23.8995 24.8016V25.1563L22.5833 24.8036V22.5313L23.8932 22.8823ZM24.9631 24.5514L24.7252 24.4876V25.3775L24.2589 25.2526V22.9803L24.944 23.1639C25.2379 23.2426 25.4589 23.3588 25.6069 23.5123C25.7549 23.6636 25.8289 23.853 25.8289 24.0807C25.8289 24.2296 25.793 24.3425 25.7211 24.4196C25.6513 24.4972 25.5424 24.5501 25.3944 24.5783L25.9622 25.7089L25.4325 25.567L24.9631 24.5514ZM24.7252 24.1462L24.9694 24.2116C25.0942 24.245 25.1883 24.2418 25.2517 24.2019C25.3151 24.1597 25.3468 24.0763 25.3468 23.9515C25.3468 23.8355 25.313 23.7422 25.2453 23.6715C25.1798 23.5992 25.0762 23.5441 24.9345 23.5061L24.7252 23.45V24.1462ZM27.7414 23.9135L27.0373 25.14V25.997L26.5711 25.8721V25.0184L25.867 23.4112L26.3776 23.548L26.8153 24.6963L27.2498 23.7817L27.7414 23.9135Z" fill="white"/>
<rect width="16.98" height="5.27636" rx="0.782609" transform="matrix(0.961262 0.275637 0 1 18.5142 31.5065)" fill="white" fill-opacity="0.5"/>
<defs>
<linearGradient id="paint0_linear_448_15026" x1="27.1878" y1="8.93482" x2="27.1878" y2="34.9567" gradientUnits="userSpaceOnUse">
<stop stop-color="#1975FF"/>
<stop offset="1" stop-color="#0F4699"/>
</linearGradient>
<linearGradient id="paint1_linear_448_15026" x1="20.7967" y1="13.9567" x2="20.7967" y2="39.9786" gradientUnits="userSpaceOnUse">
<stop stop-color="#1975FF"/>
<stop offset="1" stop-color="#0F4699"/>
</linearGradient>
<clipPath id="clip0_448_15026">
<rect width="7.82609" height="7.82609" fill="white" transform="matrix(0.965926 0.258819 0 1 11.2095 8.10881)"/>
</clipPath>
<clipPath id="clip1_448_15026">
<rect width="7.82609" height="7.82609" fill="white" transform="matrix(0.965926 0.258819 0 1 4.81836 13.1303)"/>
</clipPath>
</defs>
</svg>
