<svg width="48" height="48" viewBox="0 0 48 48" fill="none" xmlns="http://www.w3.org/2000/svg">
<g clip-path="url(#clip0_448_15081)">
<path d="M48.018 39.8049L12.4791 42.492L0.0703429 35.7067L0.0385742 8.2664L31.0166 5.51976L47.8863 11.8719L48.018 39.8049Z" fill="#DAAE87"/>
<path d="M30.9911 5.5L48.0387 11.853L12.4801 14.4278L0.0473984 8.26595L30.9911 5.5Z" fill="#E8BD97"/>
<path d="M12.4868 14.4288V42.5001L0.0405273 35.7158V8.23893L12.4868 14.4288Z" fill="#C49972"/>
<path d="M1.76465 29.7493V34.9193L7.44104 37.9762V32.5776L1.76465 29.7493Z" fill="#DAAE87"/>
<path d="M12.7075 7.13434L26.9193 13.4029L34.776 12.9152L19.1052 6.56714L12.7075 7.13434Z" fill="#F5D0B0"/>
<path d="M23.9826 20.3315L26.6982 20.1921L30.3348 28.8933L30.4784 28.8859L34.115 19.8112L36.8306 19.6717V31.9377L34.7012 32.047V23.6202L34.5876 23.626L31.2021 32.1908L29.6111 32.2725L26.2256 24.0375L26.112 24.0433V32.4881L23.9826 32.5975V20.3315Z" fill="#5F4F40"/>
<path d="M15.2495 37.0656V39.5606L46.5191 37.0659V34.6683L15.2495 37.0656Z" fill="#5F4F40"/>
</g>
<defs>
<clipPath id="clip0_448_15081">
<rect width="48" height="48" fill="white" transform="translate(-0.0078125)"/>
</clipPath>
</defs>
</svg>
