<svg width="48" height="48" viewBox="0 0 48 48" fill="none" xmlns="http://www.w3.org/2000/svg">
<path d="M40.9952 35.177L15.863 37.0772L7.0879 32.2788L7.06543 12.8737L28.9723 10.9314L40.9021 15.4234L40.9952 35.177Z" fill="#DAAE87"/>
<path d="M28.9539 10.9173L41.0095 15.41L15.8634 17.2308L7.07131 12.8733L28.9539 10.9173Z" fill="#E8BD97"/>
<path d="M15.8686 17.2315V37.0828L7.06689 32.2851V12.8542L15.8686 17.2315Z" fill="#C49972"/>
<path d="M8.28613 28.0658V31.722L12.3003 33.8837V30.0659L8.28613 28.0658Z" fill="#DAAE87"/>
<path d="M16.0249 12.0731L26.0751 16.5061L31.6311 16.1612L20.5491 11.672L16.0249 12.0731Z" fill="#F5D0B0"/>
<path d="M22.6042 21.4554L24.5118 24.534L24.5795 24.5305L26.4956 21.2556L28.2849 21.1637L25.6158 25.6378L28.3272 29.8357L26.5083 29.9291L24.5795 26.8727L24.5118 26.8762L22.583 30.1307L20.7726 30.2236L23.5094 25.746L20.8065 21.5477L22.6042 21.4554ZM34.2246 23.2432C34.1852 22.8753 34.0188 22.5958 33.7255 22.4048C33.4351 22.2136 33.0572 22.1299 32.5919 22.1538C32.2648 22.1706 31.9842 22.2344 31.7502 22.3453C31.5161 22.4561 31.3371 22.5994 31.213 22.7752C31.0889 22.951 31.0255 23.1477 31.0226 23.3653C31.0226 23.546 31.0635 23.7006 31.1453 23.8291C31.2299 23.9575 31.3441 24.0645 31.4879 24.1503C31.6317 24.2333 31.7911 24.3014 31.9659 24.3545C32.1407 24.4076 32.317 24.4508 32.4946 24.4841L33.3068 24.6457C33.6339 24.7051 33.9483 24.792 34.25 24.9064C34.5546 25.0206 34.8267 25.1704 35.0664 25.3558C35.3089 25.541 35.5007 25.7697 35.6417 26.042C35.7826 26.3143 35.8531 26.6383 35.8531 27.0138C35.8531 27.522 35.7234 27.9763 35.464 28.3764C35.2046 28.7737 34.8295 29.0937 34.3389 29.3363C33.851 29.576 33.2602 29.7136 32.5665 29.7492C31.8926 29.7839 31.3075 29.7094 30.8112 29.526C30.3177 29.3424 29.9313 29.0573 29.6522 28.6706C29.3758 28.2839 29.2264 27.8031 29.2038 27.2282L30.7477 27.1489C30.7703 27.4499 30.8633 27.6964 31.0269 27.8885C31.1904 28.0806 31.4033 28.2193 31.6656 28.3046C31.9307 28.3899 32.2267 28.4241 32.5539 28.4073C32.8951 28.3897 33.194 28.3236 33.4506 28.2087C33.71 28.0909 33.913 27.9365 34.0597 27.7454C34.2063 27.5516 34.281 27.3303 34.2839 27.0817C34.281 26.8559 34.2148 26.673 34.0851 26.5328C33.9553 26.3898 33.7735 26.2749 33.5394 26.1881C33.3082 26.0983 33.0375 26.0219 32.7273 25.9588L31.7417 25.7552C31.0283 25.6083 30.4643 25.3592 30.0498 25.0077C29.6381 24.6534 29.4322 24.1656 29.4322 23.5444C29.4322 23.0333 29.5704 22.5786 29.8467 22.1804C30.1259 21.7821 30.5052 21.4647 30.9846 21.2283C31.464 20.9891 32.0068 20.8539 32.6131 20.8228C33.2278 20.7912 33.7664 20.8709 34.2289 21.0617C34.6942 21.2496 35.0593 21.5259 35.3244 21.8907C35.5895 22.2526 35.7262 22.6776 35.7347 23.1656L34.2246 23.2432Z" fill="#5F4F40"/>
<path d="M17.8223 33.2397V35.0041L39.9353 33.2399V31.5444L17.8223 33.2397Z" fill="#5F4F40"/>
</svg>
