<svg width="36" height="36" viewBox="0 0 36 36" fill="none" xmlns="http://www.w3.org/2000/svg">
<path d="M18.3554 32.5833V19.4583Z" fill="white"/>
<path d="M18.3554 32.5833V19.4583Z" fill="white" fill-opacity="0.2"/>
<path d="M18.3554 19.4568L30.0062 12.8949L18.365 6.32337L6.70572 12.8955L18.3554 19.4568Z" fill="white"/>
<path d="M18.3554 19.4568L30.0062 12.8949L18.365 6.32337L6.70572 12.8955L18.3554 19.4568Z" fill="#1975FF"/>
<path d="M24.1669 3.41319C23.7508 3.41319 23.3416 3.51982 22.9784 3.7229L18.365 6.32337L30.0062 12.8949L31.4804 12.0646C31.9142 11.8193 32.2751 11.4632 32.5262 11.0328C32.7773 10.6023 32.9096 10.1129 32.9096 9.61457C32.9096 9.11624 32.7773 8.62683 32.5262 8.19638C32.2751 7.76593 31.9142 7.40986 31.4804 7.16457L25.3554 3.7229C24.9922 3.51982 24.583 3.41319 24.1669 3.41319Z" fill="white"/>
<path d="M24.1669 3.41319C23.7508 3.41319 23.3416 3.51982 22.9784 3.7229L18.365 6.32337L30.0062 12.8949L31.4804 12.0646C31.9142 11.8193 32.2751 11.4632 32.5262 11.0328C32.7773 10.6023 32.9096 10.1129 32.9096 9.61457C32.9096 9.11624 32.7773 8.62683 32.5262 8.19638C32.2751 7.76593 31.9142 7.40986 31.4804 7.16457L25.3554 3.7229C24.9922 3.51982 24.583 3.41319 24.1669 3.41319Z" fill="white" fill-opacity="0.2"/>
<path d="M13.7325 3.70832C13.3707 3.5011 12.961 3.39209 12.544 3.39209C12.127 3.39209 11.7173 3.5011 11.3554 3.70832L5.23044 7.16457C4.79665 7.40986 4.43577 7.76593 4.18468 8.19638C3.93358 8.62683 3.80127 9.11623 3.80127 9.61457C3.80127 10.1129 3.93358 10.6023 4.18468 11.0328C4.43577 11.4632 4.79665 11.8193 5.23044 12.0646L6.70572 12.8955L18.365 6.32337L13.7325 3.70832Z" fill="white"/>
<path d="M13.7325 3.70832C13.3707 3.5011 12.961 3.39209 12.544 3.39209C12.127 3.39209 11.7173 3.5011 11.3554 3.70832L5.23044 7.16457C4.79665 7.40986 4.43577 7.76593 4.18468 8.19638C3.93358 8.62683 3.80127 9.11623 3.80127 9.61457C3.80127 10.1129 3.93358 10.6023 4.18468 11.0328C4.43577 11.4632 4.79665 11.8193 5.23044 12.0646L6.70572 12.8955L18.365 6.32337L13.7325 3.70832Z" fill="white" fill-opacity="0.2"/>
<path d="M31.4804 18.6271C31.9142 18.3818 32.2751 18.0257 32.5262 17.5953C32.7773 17.1648 32.9096 16.6754 32.9096 16.1771C32.9096 15.6787 32.7773 15.1893 32.5262 14.7589C32.2751 14.3284 31.9142 13.9724 31.4804 13.7271L30.0062 12.8949L18.3554 19.4568L18.3581 19.4583L22.9929 22.0687C23.3546 22.2765 23.7644 22.3859 24.1815 22.3859C24.5986 22.3859 25.0084 22.2765 25.37 22.0687L30.0046 19.4583L31.4804 18.6271Z" fill="white"/>
<path d="M18.3554 19.4583V32.5796C18.8073 32.5796 19.2524 32.4708 19.6534 32.2625L28.4034 27.7708C28.8918 27.517 29.3011 27.1338 29.5865 26.6632C29.872 26.1925 30.0227 25.6525 30.0221 25.1021V19.4583H30.0046L25.37 22.0687C25.0084 22.2765 24.5986 22.3859 24.1815 22.3859C23.7644 22.3859 23.3546 22.2765 22.9929 22.0687L18.3581 19.4583H18.3554Z" fill="white"/>
<path d="M18.3554 19.4583V32.5796C18.8073 32.5796 19.2524 32.4708 19.6534 32.2625L28.4034 27.7708C28.8918 27.517 29.3011 27.1338 29.5865 26.6632C29.872 26.1925 30.0227 25.6525 30.0221 25.1021V19.4583H30.0046L25.37 22.0687C25.0084 22.2765 24.5986 22.3859 24.1815 22.3859C23.7644 22.3859 23.3546 22.2765 22.9929 22.0687L18.3581 19.4583H18.3554Z" fill="white" fill-opacity="0.2"/>
<path d="M18.3554 32.5796V19.4583H18.3528L13.7179 22.0687C13.3536 22.2765 12.9415 22.3858 12.5221 22.3858C12.1027 22.3858 11.6906 22.2765 11.3263 22.0687L6.70273 19.4583H6.68877V25.1021C6.6882 25.6525 6.83888 26.1925 7.12434 26.6632C7.40981 27.1338 7.8191 27.517 8.30752 27.7708L17.0575 32.2625C17.4584 32.4708 17.9036 32.5796 18.3554 32.5796Z" fill="white"/>
<path d="M18.3554 32.5796V19.4583H18.3528L13.7179 22.0687C13.3536 22.2765 12.9415 22.3858 12.5221 22.3858C12.1027 22.3858 11.6906 22.2765 11.3263 22.0687L6.70273 19.4583H6.68877V25.1021C6.6882 25.6525 6.83888 26.1925 7.12434 26.6632C7.40981 27.1338 7.8191 27.517 8.30752 27.7708L17.0575 32.2625C17.4584 32.4708 17.9036 32.5796 18.3554 32.5796Z" fill="white" fill-opacity="0.2"/>
<path d="M12.5221 22.3858C12.9415 22.3858 13.3536 22.2765 13.7179 22.0687L18.3528 19.4583L18.3554 19.4568L6.70572 12.8955L5.23044 13.7271C4.79665 13.9724 4.43577 14.3284 4.18468 14.7589C3.93358 15.1893 3.80127 15.6787 3.80127 16.1771C3.80127 16.6754 3.93358 17.1648 4.18468 17.5953C4.43577 18.0257 4.79665 18.3818 5.23044 18.6271L6.70273 19.4583L11.3263 22.0687C11.6906 22.2765 12.1027 22.3858 12.5221 22.3858Z" fill="white"/>
<path d="M12.5221 22.3858C12.9415 22.3858 13.3536 22.2765 13.7179 22.0687L18.3528 19.4583L18.3554 19.4568L6.70572 12.8955L5.23044 13.7271C4.79665 13.9724 4.43577 14.3284 4.18468 14.7589C3.93358 15.1893 3.80127 15.6787 3.80127 16.1771C3.80127 16.6754 3.93358 17.1648 4.18468 17.5953C4.43577 18.0257 4.79665 18.3818 5.23044 18.6271L6.70273 19.4583L11.3263 22.0687C11.6906 22.2765 12.1027 22.3858 12.5221 22.3858Z" fill="white" fill-opacity="0.2"/>
<path d="M18.3554 32.5833V19.4583M18.3554 19.4583H18.3528M18.3554 19.4583V32.5796M18.3554 19.4583H18.3581M18.3554 32.5796C18.8073 32.5796 19.2524 32.4708 19.6534 32.2625L28.4034 27.7708C28.8918 27.517 29.3011 27.1338 29.5865 26.6632C29.872 26.1925 30.0227 25.6525 30.0221 25.1021V19.4583H30.0046M18.3554 32.5796C17.9036 32.5796 17.4584 32.4708 17.0575 32.2625L8.30752 27.7708C7.8191 27.517 7.40981 27.1338 7.12434 26.6632C6.83888 26.1925 6.6882 25.6525 6.68877 25.1021V19.4583H6.70273M18.3554 19.4568L30.0062 12.8949M18.3554 19.4568L6.70572 12.8955M18.3554 19.4568L18.3528 19.4583M18.3554 19.4568L18.3581 19.4583M30.0062 12.8949L31.4804 13.7271C31.9142 13.9724 32.2751 14.3284 32.5262 14.7589C32.7773 15.1893 32.9096 15.6787 32.9096 16.1771C32.9096 16.6754 32.7773 17.1648 32.5262 17.5953C32.2751 18.0257 31.9142 18.3818 31.4804 18.6271L30.0046 19.4583M30.0062 12.8949L18.365 6.32337M30.0062 12.8949L31.4804 12.0646C31.9142 11.8193 32.2751 11.4632 32.5262 11.0328C32.7773 10.6023 32.9096 10.1129 32.9096 9.61457C32.9096 9.11624 32.7773 8.62683 32.5262 8.19638C32.2751 7.76593 31.9142 7.40986 31.4804 7.16457L25.3554 3.7229C24.9922 3.51982 24.583 3.41319 24.1669 3.41319C23.7508 3.41319 23.3416 3.51982 22.9784 3.7229L18.365 6.32337M18.365 6.32337L6.70572 12.8955M18.365 6.32337L13.7325 3.70832C13.3707 3.5011 12.961 3.39209 12.544 3.39209C12.127 3.39209 11.7173 3.5011 11.3554 3.70832L5.23044 7.16457C4.79665 7.40986 4.43577 7.76593 4.18468 8.19638C3.93358 8.62683 3.80127 9.11623 3.80127 9.61457C3.80127 10.1129 3.93358 10.6023 4.18468 11.0328C4.43577 11.4632 4.79665 11.8193 5.23044 12.0646L6.70572 12.8955M6.70572 12.8955L5.23044 13.7271C4.79665 13.9724 4.43577 14.3284 4.18468 14.7589C3.93358 15.1893 3.80127 15.6787 3.80127 16.1771C3.80127 16.6754 3.93358 17.1648 4.18468 17.5953C4.43577 18.0257 4.79665 18.3818 5.23044 18.6271L6.70273 19.4583M6.70273 19.4583L11.3263 22.0687C11.6906 22.2765 12.1027 22.3858 12.5221 22.3858C12.9415 22.3858 13.3536 22.2765 13.7179 22.0687L18.3528 19.4583M30.0046 19.4583L25.37 22.0687C25.0084 22.2765 24.5986 22.3859 24.1815 22.3859C23.7644 22.3859 23.3546 22.2765 22.9929 22.0687L18.3581 19.4583M18.3581 19.4583H18.3528" stroke="#1975FF" stroke-width="2.1875" stroke-linecap="round" stroke-linejoin="round"/>
</svg>
