<svg width="48" height="48" viewBox="0 0 48 48" fill="none" xmlns="http://www.w3.org/2000/svg">
<path d="M43.9926 37.1521L14.4188 39.3881L4.09284 33.7417L4.06641 10.9072L29.8448 8.62156L43.8831 13.9075L43.9926 37.1521Z" fill="#DAAE87"/>
<path d="M29.8237 8.6051L44.0099 13.8917L14.4197 16.0344L4.07376 10.9068L29.8237 8.6051Z" fill="#E8BD97"/>
<path d="M14.4251 16.0353V39.3949L4.06787 33.7494V10.8844L14.4251 16.0353Z" fill="#C49972"/>
<path d="M5.50244 28.7842V33.0865L10.2261 35.6303V31.1378L5.50244 28.7842Z" fill="#DAAE87"/>
<path d="M14.6089 9.96512L26.4353 15.1816L32.9732 14.7757L19.9327 9.49313L14.6089 9.96512Z" fill="#F5D0B0"/>
<path d="M31.3311 23.2296C31.2847 22.7967 31.0889 22.4679 30.7438 22.2431C30.402 22.0181 29.9573 21.9196 29.4098 21.9477C29.0249 21.9675 28.6947 22.0426 28.4193 22.173C28.1439 22.3035 27.9332 22.4721 27.7872 22.679C27.6412 22.8858 27.5665 23.1173 27.5632 23.3733C27.5632 23.5859 27.6113 23.7679 27.7076 23.9191C27.8071 24.0701 27.9415 24.1961 28.1107 24.2971C28.28 24.3947 28.4674 24.4748 28.6732 24.5374C28.8789 24.5999 29.0863 24.6507 29.2954 24.6898L30.251 24.88C30.6359 24.9499 31.0059 25.0522 31.361 25.1868C31.7193 25.3212 32.0396 25.4975 32.3216 25.7156C32.607 25.9335 32.8326 26.2027 32.9985 26.5231C33.1645 26.8435 33.2474 27.2247 33.2474 27.6666C33.2474 28.2647 33.0948 28.7992 32.7895 29.27C32.4842 29.7376 32.0429 30.1141 31.4655 30.3996C30.8914 30.6816 30.1963 30.8436 29.38 30.8855C28.5869 30.9262 27.8984 30.8387 27.3143 30.6228C26.7337 30.4067 26.279 30.0712 25.9505 29.6163C25.6253 29.1612 25.4495 28.5954 25.4229 27.9189L27.2397 27.8256C27.2662 28.1798 27.3757 28.4699 27.5682 28.6959C27.7607 28.9219 28.0112 29.0852 28.3198 29.1856C28.6317 29.2859 28.9801 29.3261 29.365 29.3064C29.7665 29.2857 30.1183 29.2079 30.4202 29.0727C30.7255 28.9341 30.9644 28.7524 31.137 28.5276C31.3095 28.2994 31.3975 28.0391 31.4008 27.7465C31.3975 27.4809 31.3195 27.2656 31.1669 27.1006C31.0142 26.9324 30.8002 26.7972 30.5248 26.695C30.2527 26.5894 29.9341 26.4994 29.5691 26.4251L28.4094 26.1856C27.5699 26.0128 26.9062 25.7196 26.4184 25.306C25.9339 24.889 25.6917 24.315 25.6917 23.584C25.6917 22.9826 25.8543 22.4476 26.1795 21.9791C26.508 21.5103 26.9543 21.1368 27.5184 20.8587C28.0825 20.5772 28.7213 20.4181 29.4347 20.3815C30.1581 20.3443 30.7919 20.4381 31.3361 20.6626C31.8836 20.8837 32.3133 21.2089 32.6252 21.6381C32.9372 22.064 33.0981 22.5641 33.108 23.1384L31.3311 23.2296Z" fill="#5F4F40"/>
<path d="M16.7241 34.8726V36.9488L42.7452 34.8727V32.8776L16.7241 34.8726Z" fill="#5F4F40"/>
</svg>
