<svg width="48" height="48" viewBox="0 0 48 48" fill="none" xmlns="http://www.w3.org/2000/svg">
<g clip-path="url(#clip0_448_15095)">
<path d="M48.0175 43.2143L12.4786 46.3589L0.0380859 37.5001V6.30502L31.0161 3.09065L47.8859 10.5245L48.0175 43.2143Z" fill="#DAAE87"/>
<path d="M30.9907 3.06749L48.0382 10.5023L12.4797 13.5156L0.0469101 6.30446L30.9907 3.06749Z" fill="#E8BD97"/>
<path d="M12.4863 13.5169V46.3685L0.0400391 37.5V6.27298L12.4863 13.5169Z" fill="#C49972"/>
<path d="M1.76367 31.4461V37.2015L7.44007 41.074V34.756L1.76367 31.4461Z" fill="#DAAE87"/>
<path d="M12.707 4.98013L26.9188 12.3162L34.7755 11.7454L19.1047 4.31635L12.707 4.98013Z" fill="#F5D0B0"/>
<path d="M26.8437 32.7714V20.5054L29.0628 20.3915V30.7948L34.458 30.5177V32.3804L26.8437 32.7714Z" fill="#5F4F40"/>
<path d="M15.249 40.9339V43.4289L46.5186 40.6809V38.2834L15.249 40.9339Z" fill="#5F4F40"/>
</g>
<defs>
<clipPath id="clip0_448_15095">
<rect width="48" height="48" fill="white" transform="translate(-0.0078125)"/>
</clipPath>
</defs>
</svg>
